# xmcd CD database file
#
# Track frame offsets:
#	150
#	14467
#	27281
#	42597
#	55094
#	73577
#
# Disc length: 1200 seconds
#
# Revision: 0
# Processed by: cddbd v1.5.2PL0 Copyright (c) Steve Scherf et al.
# Submitted via: CDex 1.70beta2
#
DISCID=4c04ae06
DTITLE=Andra Faye and The Might Good Men - Walkin' Home to You
DYEAR=2005
DGENRE=Blues
TTITLE0=Walkin' Home to You
TTITLE1=Slow Burnin Love
TTITLE2=Take it Slow
TTITLE3=Little Lolita
TTITLE4=Lonely Nights
TTITLE5=Goin' Down to the River
EXTD=YEAR: 2005
EXTT0=
EXTT1=
EXTT2=
EXTT3=
EXTT4=
EXTT5=
PLAYORDER=
